<?xml version="1.0" encoding="UTF-8"?>
<!-- Do not edit this file with editors other than draw.io -->
<!DOCTYPE svg PUBLIC "-//W3C//DTD SVG 1.1//EN" "http://www.w3.org/Graphics/SVG/1.1/DTD/svg11.dtd">
<svg xmlns="http://www.w3.org/2000/svg" version="1.1" width="42px" height="52px" viewBox="-0.5 -0.5 42 52" content="&lt;mxfile host=&quot;app.diagrams.net&quot; version=&quot;24.8.3&quot;&gt;&lt;diagram name=&quot;Page-1&quot; id=&quot;-u-xUxU04SR-HhoO1T0F&quot;&gt;&lt;/diagram&gt;&lt;/mxfile&gt;">
  <defs>
    <filter id="bShadow" x="-10%" y="-10%" width="130%" height="130%">
      <feDropShadow dx="0" dy="1.5" stdDeviation="1.5" flood-color="#00000050"/>
    </filter>
  </defs>

  <g filter="url(#bShadow)">

    <!-- 1. Gear — static -->
    <g>
      <path d="M 21.24 39.68 C 21.04 38.6 21.04 37.5 21.24 36.42 L 18.62 35.29
               C 18.38 35.14 18.25 34.88 18.27 34.59 L 19.34 32.05
               C 19.55 31.82 19.88 31.74 20.17 31.86 L 22.69 32.87
               C 23.31 31.97 24.08 31.2 24.97 30.59 L 23.97 28
               C 23.85 27.65 23.99 27.27 24.3 27.08 L 26.63 26.13
               C 26.93 26.07 27.23 26.2 27.4 26.46 L 28.49 29.1
               C 29.56 28.9 30.65 28.9 31.72 29.1 L 32.81 26.53
               C 32.95 26.25 33.26 26.08 33.57 26.13 L 36.05 27.18
               C 36.24 27.33 36.35 27.58 36.33 27.83 L 35.24 30.54
               C 36.13 31.17 36.91 31.96 37.52 32.87 L 40.08 31.81
               C 40.42 31.72 40.78 31.88 40.94 32.19 L 41.84 34.35
               C 42 34.68 41.9 35.08 41.61 35.29 L 38.99 36.35
               C 39.2 37.46 39.2 38.6 38.99 39.7 L 41.56 40.79
               C 41.83 40.94 41.98 41.24 41.94 41.55 L 40.89 44
               C 40.7 44.25 40.38 44.36 40.08 44.26 L 37.54 43.23
               C 36.93 44.15 36.14 44.95 35.24 45.59 L 36.26 48.08
               C 36.37 48.38 36.28 48.71 36.05 48.92 L 33.43 50
               C 33.17 49.99 32.94 49.84 32.81 49.61 L 31.77 47.02
               C 30.69 47.23 29.59 47.23 28.51 47.02 L 27.4 49.57
               C 27.24 49.85 26.92 49.99 26.61 49.93 L 24.12 48.92
               C 23.94 48.75 23.85 48.51 23.88 48.27 L 24.97 45.59
               C 24.06 44.95 23.28 44.15 22.66 43.23 L 20.22 44.24
               C 19.89 44.4 19.5 44.3 19.29 44 L 18.37 41.6
               C 18.28 41.28 18.41 40.94 18.7 40.76 Z
               M 23.8 38.05 C 23.83 41.55 26.64 44.38 30.11 44.41
               C 33.57 44.38 36.37 41.55 36.4 38.05
               C 36.37 34.55 33.57 31.72 30.11 31.69
               C 26.64 31.72 23.83 34.55 23.8 38.05 Z"
            fill="#f59e0b" fill-rule="evenodd" stroke="#b45309" stroke-width="0.6"/>
      <circle cx="30.11" cy="38.05" r="2.8" fill="#5d7fd8" stroke="none"/>
    </g>

    <!-- 2. Server tower drawn ON TOP — naturally covers overlapping gear teeth -->
    <path d="M 0 46.79 L 0 2.35 C 0.35 0.99 1.58 0.06 2.98 0.1 L 21.24 0
             C 22.76 0.21 23.88 1.55 23.82 3.11 L 23.82 25.7
             C 22.85 26.14 22.39 27.26 22.78 28.26 L 23.57 29.91 L 22.13 31.31 L 20.1 30.46
             C 19.34 30.31 18.56 30.63 18.11 31.26 L 17.17 33.57
             L 4.57 33.57 L 4.57 35.57 L 17.27 35.57
             C 17.54 36.05 17.98 36.39 18.51 36.52 L 19.85 37.02 L 19.85 38.93 L 18.41 39.53
             L 4.57 39.53 L 4.57 41.58 L 16.87 41.58
             L 18.01 44.59 C 18.44 45.32 19.27 45.7 20.1 45.54 L 22.13 44.69 L 23.32 45.99 L 23.07 46.84 Z"
          fill="#5d7fd8" stroke="#172a6b" stroke-width="0.6"/>

    <!-- 3. LED bar on top of everything -->
    <path d="M 4.52 8.32 L 19.1 8.32 L 19.1 6.21 L 4.52 6.21 Z" fill="#93c5fd" stroke="none">
      <animate attributeName="fill" values="#93c5fd;#34d399;#93c5fd"
               dur="3s" repeatCount="indefinite" calcMode="spline"
               keySplines="0.4 0 0.6 1;0.4 0 0.6 1"/>
    </path>

  </g>
</svg>
