<?xml version="1.0" encoding="UTF-8"?>
<!-- Do not edit this file with editors other than draw.io -->
<!DOCTYPE svg PUBLIC "-//W3C//DTD SVG 1.1//EN" "http://www.w3.org/Graphics/SVG/1.1/DTD/svg11.dtd">
<svg xmlns="http://www.w3.org/2000/svg" xmlns:xlink="http://www.w3.org/1999/xlink" version="1.1" width="39px" height="51px" viewBox="-0.5 -0.5 39 51" content="&lt;mxfile host=&quot;app.diagrams.net&quot; agent=&quot;Mozilla/5.0 (Windows NT 10.0; Win64; x64) AppleWebKit/537.36 (KHTML, like Gecko) Chrome/128.0.0.0 Safari/537.36 Edg/128.0.0.0&quot; version=&quot;24.7.16&quot;&gt;&#10;  &lt;diagram name=&quot;Page-1&quot; id=&quot;1sW2r1akbxhZGaDiX2mz&quot;&gt;&#10;    &lt;mxGraphModel dx=&quot;1426&quot; dy=&quot;791&quot; grid=&quot;1&quot; gridSize=&quot;10&quot; guides=&quot;1&quot; tooltips=&quot;1&quot; connect=&quot;1&quot; arrows=&quot;1&quot; fold=&quot;1&quot; page=&quot;1&quot; pageScale=&quot;1&quot; pageWidth=&quot;827&quot; pageHeight=&quot;1169&quot; math=&quot;0&quot; shadow=&quot;0&quot;&gt;&#10;      &lt;root&gt;&#10;        &lt;mxCell id=&quot;0&quot; /&gt;&#10;        &lt;mxCell id=&quot;1&quot; parent=&quot;0&quot; /&gt;&#10;        &lt;mxCell id=&quot;Zo_hKfJ1Sf6NGJSFo8-C-5&quot; value=&quot;&quot; style=&quot;sketch=0;pointerEvents=1;shadow=0;dashed=0;html=1;strokeColor=#23445d;labelPosition=center;verticalLabelPosition=bottom;verticalAlign=top;align=center;fillColor=#bac8d3;shape=mxgraph.mscae.enterprise.database_server;&quot; vertex=&quot;1&quot; parent=&quot;1&quot;&gt;&#10;          &lt;mxGeometry x=&quot;310&quot; y=&quot;170&quot; width=&quot;38&quot; height=&quot;50&quot; as=&quot;geometry&quot; /&gt;&#10;        &lt;/mxCell&gt;&#10;      &lt;/root&gt;&#10;    &lt;/mxGraphModel&gt;&#10;  &lt;/diagram&gt;&#10;&lt;/mxfile&gt;&#10;"><defs/><g><g data-cell-id="0"><g data-cell-id="1"><g data-cell-id="Zo_hKfJ1Sf6NGJSFo8-C-5"><g><rect x="0" y="0" width="38" height="50" fill="none" stroke="none" pointer-events="all"/><path d="M 0 49.76 L 0 2.4 C 0.05 1.13 1.05 0.1 2.32 0 L 22.03 0 C 23.35 0.05 24.4 1.1 24.45 2.4 L 24.45 17.58 C 19.79 17.98 16.25 20.07 15.92 22.63 L 15.92 37.62 L 3.69 37.62 L 3.69 40.01 L 15.92 40.01 L 15.92 42.46 L 3.69 42.46 L 3.69 44.86 L 15.92 44.86 C 15.84 46.85 16.87 48.72 18.59 49.76 Z M 3.69 9.74 L 20.92 9.74 L 20.92 7.29 L 3.69 7.29 Z M 27.99 19.78 C 22.66 19.82 18.41 21.4 18.51 23.32 C 18.61 25.24 23.01 26.76 28.34 26.73 C 33.68 26.73 38 25.17 38 23.25 C 38 21.34 33.68 19.78 28.34 19.78 Z M 18.44 25.63 C 19.6 27.08 23.62 28.09 28.22 28.09 C 32.82 28.09 36.83 27.08 37.99 25.63 L 37.99 45.86 C 37.73 46.95 36.49 47.96 34.51 48.71 C 31 49.94 26.09 50 22.43 48.86 C 20.26 48.26 18.77 47.14 18.44 45.86 Z" fill="#bac8d3" stroke="#23445d" stroke-miterlimit="10" pointer-events="all"/></g></g></g></g></g></svg>