<?xml version="1.0" encoding="UTF-8"?>
<!-- Do not edit this file with editors other than draw.io -->
<!DOCTYPE svg PUBLIC "-//W3C//DTD SVG 1.1//EN" "http://www.w3.org/Graphics/SVG/1.1/DTD/svg11.dtd">
<svg xmlns="http://www.w3.org/2000/svg" xmlns:xlink="http://www.w3.org/1999/xlink" version="1.1" width="45px" height="51px" viewBox="-0.5 -0.5 45 51" content="&lt;mxfile host=&quot;app.diagrams.net&quot; agent=&quot;Mozilla/5.0 (Windows NT 10.0; Win64; x64) AppleWebKit/537.36 (KHTML, like Gecko) Chrome/128.0.0.0 Safari/537.36 Edg/128.0.0.0&quot; version=&quot;24.7.16&quot;&gt;&#10;  &lt;diagram name=&quot;Page-1&quot; id=&quot;1sW2r1akbxhZGaDiX2mz&quot;&gt;&#10;    &lt;mxGraphModel dx=&quot;1426&quot; dy=&quot;791&quot; grid=&quot;1&quot; gridSize=&quot;10&quot; guides=&quot;1&quot; tooltips=&quot;1&quot; connect=&quot;1&quot; arrows=&quot;1&quot; fold=&quot;1&quot; page=&quot;1&quot; pageScale=&quot;1&quot; pageWidth=&quot;827&quot; pageHeight=&quot;1169&quot; math=&quot;0&quot; shadow=&quot;0&quot;&gt;&#10;      &lt;root&gt;&#10;        &lt;mxCell id=&quot;0&quot; /&gt;&#10;        &lt;mxCell id=&quot;1&quot; parent=&quot;0&quot; /&gt;&#10;        &lt;mxCell id=&quot;Zo_hKfJ1Sf6NGJSFo8-C-4&quot; value=&quot;&quot; style=&quot;sketch=0;pointerEvents=1;shadow=0;dashed=0;html=1;strokeColor=#23445d;labelPosition=center;verticalLabelPosition=bottom;verticalAlign=top;align=center;fillColor=#bac8d3;shape=mxgraph.mscae.system_center.distribution_point;&quot; vertex=&quot;1&quot; parent=&quot;1&quot;&gt;&#10;          &lt;mxGeometry x=&quot;240&quot; y=&quot;170&quot; width=&quot;44&quot; height=&quot;50&quot; as=&quot;geometry&quot; /&gt;&#10;        &lt;/mxCell&gt;&#10;      &lt;/root&gt;&#10;    &lt;/mxGraphModel&gt;&#10;  &lt;/diagram&gt;&#10;&lt;/mxfile&gt;&#10;"><defs/><g><g data-cell-id="0"><g data-cell-id="1"><g data-cell-id="Zo_hKfJ1Sf6NGJSFo8-C-4"><g><rect x="0" y="0" width="44" height="50" fill="none" stroke="none" pointer-events="all"/><path d="M 0 46.03 L 0 3.01 C 0 2.21 0.32 1.45 0.88 0.88 C 1.44 0.32 2.2 0 3 0 L 21.13 0 C 22.54 0.29 23.55 1.56 23.52 3.01 L 23.62 20.58 L 23.62 26.31 L 16.63 26.31 C 14.86 26.5 13.44 27.85 13.14 29.62 L 13.14 32.93 L 4.64 32.93 L 4.64 34.84 L 13.14 34.84 L 13.14 38.76 L 4.64 38.76 L 4.64 40.76 L 13.14 40.76 L 13.14 46.03 Z M 19.13 7.93 L 19.13 5.82 L 4.69 5.82 L 4.69 7.93 Z M 15.23 30.27 C 15.23 29.18 16.1 28.29 17.18 28.26 L 44 28.26 L 44 50 L 15.23 50 Z M 30.72 27.06 L 34.36 23.69 L 42.35 23.69 C 43.17 23.82 43.82 24.44 44 25.25 L 44 27.06 Z" fill="#bac8d3" stroke="#23445d" stroke-miterlimit="10" pointer-events="all"/></g></g></g></g></g></svg>