<?xml version="1.0" encoding="UTF-8"?>
<!-- Do not edit this file with editors other than draw.io -->
<!DOCTYPE svg PUBLIC "-//W3C//DTD SVG 1.1//EN" "http://www.w3.org/Graphics/SVG/1.1/DTD/svg11.dtd">
<svg xmlns="http://www.w3.org/2000/svg" xmlns:xlink="http://www.w3.org/1999/xlink" version="1.1" width="45px" height="56px" viewBox="-0.5 -0.5 45 56" content="&lt;mxfile host=&quot;app.diagrams.net&quot; agent=&quot;Mozilla/5.0 (Windows NT 10.0; Win64; x64) AppleWebKit/537.36 (KHTML, like Gecko) Chrome/128.0.0.0 Safari/537.36 Edg/128.0.0.0&quot; version=&quot;24.7.16&quot;&gt;&#10;  &lt;diagram name=&quot;Page-1&quot; id=&quot;1sW2r1akbxhZGaDiX2mz&quot;&gt;&#10;    &lt;mxGraphModel dx=&quot;1426&quot; dy=&quot;791&quot; grid=&quot;1&quot; gridSize=&quot;10&quot; guides=&quot;1&quot; tooltips=&quot;1&quot; connect=&quot;1&quot; arrows=&quot;1&quot; fold=&quot;1&quot; page=&quot;1&quot; pageScale=&quot;1&quot; pageWidth=&quot;827&quot; pageHeight=&quot;1169&quot; math=&quot;0&quot; shadow=&quot;0&quot;&gt;&#10;      &lt;root&gt;&#10;        &lt;mxCell id=&quot;0&quot; /&gt;&#10;        &lt;mxCell id=&quot;1&quot; parent=&quot;0&quot; /&gt;&#10;        &lt;mxCell id=&quot;Zo_hKfJ1Sf6NGJSFo8-C-10&quot; value=&quot;&quot; style=&quot;sketch=0;pointerEvents=1;shadow=0;dashed=0;html=1;strokeColor=#23445d;fillColor=#bac8d3;labelPosition=center;verticalLabelPosition=bottom;verticalAlign=top;outlineConnect=0;align=center;shape=mxgraph.office.servers.virtual_web_server;&quot; vertex=&quot;1&quot; parent=&quot;1&quot;&gt;&#10;          &lt;mxGeometry x=&quot;410&quot; y=&quot;190&quot; width=&quot;44&quot; height=&quot;55&quot; as=&quot;geometry&quot; /&gt;&#10;        &lt;/mxCell&gt;&#10;      &lt;/root&gt;&#10;    &lt;/mxGraphModel&gt;&#10;  &lt;/diagram&gt;&#10;&lt;/mxfile&gt;&#10;"><defs/><g><g data-cell-id="0"><g data-cell-id="1"><g data-cell-id="Zo_hKfJ1Sf6NGJSFo8-C-10"><g><rect x="0" y="0" width="44" height="55" fill="none" stroke="none" pointer-events="all"/><path d="M 34.77 27.67 C 36.64 28.33 38 29.33 39.15 30.44 C 38.49 30.8 37.8 31.16 37 31.48 C 36.19 29.53 35.46 28.5 34.77 27.67 Z M 37.59 32.89 C 38.57 32.48 39.49 32.02 40.35 31.49 C 42.34 33.77 42.79 35.29 43.31 36.75 C 41.9 37.71 40.42 38.53 38.79 39.04 C 38.61 37.17 38.36 35.24 37.59 32.89 Z M 38.81 40.5 C 40.69 39.94 42.28 39.19 43.59 38.26 C 44 40.84 43.83 42.38 43.54 43.75 C 41.43 45.34 39.75 46.02 38.12 46.65 C 38.35 45.34 38.55 45.94 38.81 40.5 Z M 37.64 48.46 C 39.14 47.99 40.67 47.47 42.88 46.06 C 40.93 50.72 37.54 53.13 34.58 54.16 C 35.66 52.95 36.72 51.47 37.64 48.46 Z M 35.88 48.91 C 34.42 52.77 32.33 54.52 30.53 54.93 L 30.53 49.63 C 32.39 49.58 34.18 49.36 35.88 48.91 Z M 30.52 48.19 L 30.52 42.03 C 32.34 42.08 34.72 41.68 37.3 41.1 C 37.3 43.71 36.91 45.56 36.49 47.32 C 34.09 47.97 32.23 48.14 30.52 48.19 Z M 30.61 40.5 L 30.61 34.24 C 32.51 34.15 34.37 33.89 36.18 33.34 C 36.79 35.15 37.13 37.28 37.36 39.51 C 35.29 40.12 33.02 40.41 30.61 40.5 Z M 30.45 26.8 L 31.05 26.8 C 32.38 27.24 33.33 28.29 33.88 28.99 C 34.7 30.02 35.15 30.98 35.58 31.92 C 34.21 32.31 32.61 32.67 30.45 32.75 Z M 29.05 32.82 C 27.34 32.75 25.66 32.47 24.01 31.99 C 24.56 30.63 25.27 29.38 26.25 28.33 C 26.86 27.74 27.5 27.18 28.45 26.87 L 29.05 26.87 Z M 29.12 40.51 C 26.56 40.41 24.33 40.06 22.35 39.52 C 22.49 37.73 22.53 36.02 23.54 33.35 C 25.77 34.05 28.34 34.25 29.13 34.23 Z M 29.05 41.97 L 29.05 48.14 C 27.09 48.19 25.13 47.86 23.17 47.35 C 22.55 45.16 22.29 43.06 22.29 41.03 C 24.51 41.64 26.76 41.92 29.05 41.97 Z M 29.05 49.71 L 29.05 55 C 27.99 54.77 27.12 54.2 26.34 53.42 C 25.12 52.16 24.29 50.64 23.68 49.13 C 25.46 49.48 27.24 49.75 29.05 49.71 Z M 21.97 48.58 C 22.97 51.65 24.04 52.95 25.1 54.19 C 20.42 52.42 18.13 49.21 16.88 46.46 C 18.54 47.33 20.2 48.19 21.97 48.58 Z M 16.1 44.2 C 15.64 42.51 15.51 40.59 15.9 38.26 C 17.26 39.1 18.78 39.89 20.79 40.57 C 20.78 42.84 21 44.91 21.46 46.81 C 19.98 46.39 18.3 45.66 16.1 44.2 Z M 16.34 36.76 C 16.95 34.69 17.98 32.97 19.32 31.49 C 20.29 32.14 21.16 32.48 22.06 32.89 C 21.31 34.92 20.99 37.18 20.88 39.07 C 19.45 38.55 18.01 38.02 16.34 36.76 Z M 20.35 30.37 C 21.88 29.08 23.36 28.21 24.82 27.68 C 24.07 28.55 23.31 29.67 22.51 31.41 C 21.7 31.06 20.97 30.71 20.35 30.37 Z M 21.53 2.23 L 21.53 0 L 23.76 0 L 23.76 2.23 Z M 3.72 2.23 L 3.72 0 L 5.95 0 L 5.95 2.23 Z M 8.17 2.23 L 8.17 0 L 10.4 0 L 10.4 2.23 Z M 12.63 2.23 L 12.63 0 L 14.85 0 L 14.85 2.23 Z M 17.07 2.23 L 17.07 0 L 19.3 0 L 19.3 2.23 Z M 25.25 6.7 L 25.25 4.47 L 27.48 4.47 L 27.48 6.7 Z M 25.25 11.16 L 25.25 8.93 L 27.48 8.93 L 27.48 11.16 Z M 25.25 15.63 L 25.25 13.39 L 27.48 13.39 L 27.48 15.63 Z M 25.25 20.09 L 25.25 17.86 L 27.48 17.86 L 27.48 20.09 Z M 25.25 24.55 L 25.25 22.32 L 27.48 22.32 L 27.48 24.55 Z M 0 6.71 L 0 4.47 L 2.23 4.47 L 2.23 6.71 Z M 0 11.17 L 0 8.94 L 2.23 8.94 L 2.23 11.17 Z M 0 15.63 L 0 13.4 L 2.23 13.4 L 2.23 15.63 Z M 0 20.1 L 0 17.87 L 2.23 17.87 L 2.23 20.1 Z M 0 24.55 L 0 22.32 L 2.23 22.32 L 2.23 24.55 Z M 0 29.02 L 0 26.79 L 2.23 26.79 L 2.23 29.02 Z M 0 33.48 L 0 31.25 L 2.23 31.25 L 2.23 33.48 Z M 0 37.95 L 0 35.72 L 2.23 35.72 L 2.23 37.95 Z M 0 42.42 L 0 40.19 L 2.23 40.19 L 2.23 42.42 Z M 0 46.88 L 0 44.65 L 2.23 44.65 L 2.23 46.88 Z M 0 51.35 L 0 49.12 L 2.23 49.12 L 2.23 51.35 Z M 3.71 51.35 L 3.71 49.12 L 5.94 49.12 L 5.94 51.35 Z M 8.17 51.35 L 8.17 49.12 L 10.4 49.12 L 10.4 51.35 Z M 24.81 2.31 L 25.61 0.28 C 26.33 0.54 26.82 1.06 27.18 1.79 L 25.17 2.68 C 25.08 2.55 25.01 2.4 24.81 2.31 Z M 0.23 2.01 C 0.43 1.26 0.93 0.7 1.54 0.35 L 2.66 2.23 C 2.52 2.37 2.4 2.52 2.31 2.68 Z M 5.94 8.94 L 5.94 6.71 L 21.54 6.71 L 21.54 8.94 Z M 12.63 51.35 L 12.63 49.12 L 14.85 49.12 L 14.85 51.35 Z M 5.94 39.45 L 5.94 37.22 L 13.79 37.22 C 13.64 37.91 13.51 38.63 13.44 39.45 Z M 5.94 45.4 L 5.94 43.16 L 13.52 43.16 C 13.62 43.96 13.79 44.71 13.98 45.4 Z" fill="#bac8d3" stroke="#23445d" stroke-miterlimit="10" pointer-events="all"/></g></g></g></g></g></svg>