<?xml version="1.0" encoding="UTF-8"?>
<!-- Do not edit this file with editors other than draw.io -->
<!DOCTYPE svg PUBLIC "-//W3C//DTD SVG 1.1//EN" "http://www.w3.org/Graphics/SVG/1.1/DTD/svg11.dtd">
<svg xmlns="http://www.w3.org/2000/svg" version="1.1" width="29px" height="38px" viewBox="-0.5 -0.5 29 38" content="&lt;mxfile host=&quot;app.diagrams.net&quot; version=&quot;24.7.16&quot;&gt;&lt;diagram name=&quot;Page-1&quot; id=&quot;1sW2r1akbxhZGaDiX2mz&quot;&gt;&lt;/diagram&gt;&lt;/mxfile&gt;">
  <defs>
    <filter id="httpsShadow" x="-15%" y="-15%" width="140%" height="140%">
      <feDropShadow dx="0" dy="2" stdDeviation="2" flood-color="#6d28d940"/>
    </filter>
  </defs>
  <g filter="url(#httpsShadow)">
    <!-- Shackle — violet, subtle up/down float -->
    <g>
      <animateTransform attributeName="transform" type="translate"
                        values="0,0; 0,-1.5; 0,0" dur="3s"
                        repeatCount="indefinite" calcMode="spline"
                        keySplines="0.4 0 0.6 1;0.4 0 0.6 1"/>
      <path d="M 21.96 16.39 L 21.96 10.57 C 21.96 7.1 18.82 3.17 14.02 3.17
               C 9.18 3.17 6.04 7.08 6.04 10.77 L 6.04 16.39 Z"
            fill="#8b5cf6" stroke="#6d28d9" stroke-width="1" stroke-linejoin="round"/>
      <path d="M 19 16.39 L 19 10.8 C 19 8.4 16.8 6 14 6
               C 11.2 6 9 8.4 9 10.8 L 9 16.39 Z"
            fill="#a78bfa" stroke="none"/>
    </g>
    <!-- Lock body — dark slate, always static -->
    <rect x="0" y="16.39" width="28" height="20.61" rx="2.5"
          fill="#1e293b" stroke="#0f172a" stroke-width="0.8"/>
    <rect x="0" y="16.39" width="28" height="3" rx="2.5"
          fill="#334155" stroke="none"/>
    <!-- Keyhole outer — pulses glow -->
    <circle cx="14" cy="26" r="4" fill="#7c3aed" stroke="#5b21b6" stroke-width="0.5">
      <animate attributeName="r" values="4;4.8;4" dur="2.5s"
               repeatCount="indefinite" calcMode="spline"
               keySplines="0.4 0 0.6 1;0.4 0 0.6 1"/>
      <animate attributeName="fill" values="#7c3aed;#a78bfa;#7c3aed" dur="2.5s"
               repeatCount="indefinite" calcMode="spline"
               keySplines="0.4 0 0.6 1;0.4 0 0.6 1"/>
    </circle>
    <circle cx="14" cy="25.5" r="1.8" fill="#f1f5f9" stroke="none"/>
    <rect x="12.8" y="26.5" width="2.4" height="3.5" rx="0.5" fill="#f1f5f9" stroke="none"/>
  </g>
</svg>
