<?xml version="1.0" encoding="UTF-8"?>
<!-- Do not edit this file with editors other than draw.io -->
<!DOCTYPE svg PUBLIC "-//W3C//DTD SVG 1.1//EN" "http://www.w3.org/Graphics/SVG/1.1/DTD/svg11.dtd">
<svg xmlns="http://www.w3.org/2000/svg" xmlns:xlink="http://www.w3.org/1999/xlink" version="1.1" width="47px" height="60px" viewBox="-0.5 -0.5 47 60" content="&lt;mxfile host=&quot;app.diagrams.net&quot; agent=&quot;Mozilla/5.0 (Windows NT 10.0; Win64; x64) AppleWebKit/537.36 (KHTML, like Gecko) Chrome/128.0.0.0 Safari/537.36 Edg/128.0.0.0&quot; version=&quot;24.7.16&quot;&gt;&#10;  &lt;diagram name=&quot;Page-1&quot; id=&quot;1sW2r1akbxhZGaDiX2mz&quot;&gt;&#10;    &lt;mxGraphModel dx=&quot;1426&quot; dy=&quot;791&quot; grid=&quot;1&quot; gridSize=&quot;10&quot; guides=&quot;1&quot; tooltips=&quot;1&quot; connect=&quot;1&quot; arrows=&quot;1&quot; fold=&quot;1&quot; page=&quot;1&quot; pageScale=&quot;1&quot; pageWidth=&quot;827&quot; pageHeight=&quot;1169&quot; math=&quot;0&quot; shadow=&quot;0&quot;&gt;&#10;      &lt;root&gt;&#10;        &lt;mxCell id=&quot;0&quot; /&gt;&#10;        &lt;mxCell id=&quot;1&quot; parent=&quot;0&quot; /&gt;&#10;        &lt;mxCell id=&quot;Zo_hKfJ1Sf6NGJSFo8-C-3&quot; value=&quot;&quot; style=&quot;sketch=0;pointerEvents=1;shadow=0;dashed=0;html=1;strokeColor=#23445d;fillColor=#bac8d3;labelPosition=center;verticalLabelPosition=bottom;verticalAlign=top;outlineConnect=0;align=center;shape=mxgraph.office.servers.certificate_authority;&quot; vertex=&quot;1&quot; parent=&quot;1&quot;&gt;&#10;          &lt;mxGeometry x=&quot;180&quot; y=&quot;168&quot; width=&quot;46&quot; height=&quot;59&quot; as=&quot;geometry&quot; /&gt;&#10;        &lt;/mxCell&gt;&#10;      &lt;/root&gt;&#10;    &lt;/mxGraphModel&gt;&#10;  &lt;/diagram&gt;&#10;&lt;/mxfile&gt;&#10;"><defs/><g><g data-cell-id="0"><g data-cell-id="1"><g data-cell-id="Zo_hKfJ1Sf6NGJSFo8-C-3"><g><rect x="0" y="0" width="46" height="59" fill="none" stroke="none" pointer-events="all"/><path d="M 21.87 9.03 L 21.87 6.77 L 5.28 6.77 L 5.28 9.03 Z M 0 52.69 L 0 2.94 C 0 1.27 1.51 0 2.92 0 L 24.19 0 C 25.61 0 27.15 1.19 27.15 3.03 L 27.15 30.85 L 20.21 30.85 L 13.57 37.48 L 13.57 37.63 L 5.28 37.63 L 5.28 39.89 L 13.57 39.89 L 13.57 44.41 L 5.28 44.41 L 5.28 46.67 L 13.57 46.67 L 13.57 52.69 Z M 15.84 39.14 L 15.84 38.39 L 21.11 33.12 L 21.87 33.12 L 21.87 39.14 Z M 15.84 52.69 L 15.84 40.64 L 23.38 40.64 L 23.38 33.12 L 41.48 33.12 L 41.48 38.9 C 40.57 38.39 39.26 37.91 37.74 37.94 C 33.97 37.94 30.18 40.95 30.18 45.48 C 30.15 47.92 31.29 49.67 32.35 50.81 L 31.36 52.69 Z M 37.74 50.42 C 40.67 50.42 42.67 48.12 42.67 45.48 C 42.67 42.99 40.64 40.64 37.74 40.64 C 35.01 40.64 32.87 42.92 32.87 45.48 C 32.87 48.59 35.42 50.42 37.74 50.42 Z M 37.74 49.23 C 35.84 49.23 34.09 47.68 34.09 45.48 C 34.09 43.64 35.66 41.85 37.74 41.85 C 40.04 41.85 41.48 43.73 41.48 45.48 C 41.48 47.58 39.86 49.23 37.74 49.23 Z M 37.74 48.47 C 39.44 48.47 40.72 47.16 40.72 45.48 C 40.72 44.13 39.63 42.59 37.74 42.59 C 36.48 42.59 34.84 43.58 34.84 45.48 C 34.84 47.09 36.1 48.47 37.74 48.47 Z M 30.7 57.43 L 34.4 50.51 C 32.83 49.39 31.82 47.67 31.82 45.48 C 31.82 42.09 34.72 39.52 37.74 39.52 C 41.52 39.52 43.89 42.55 43.89 45.48 C 43.9 47.77 42.75 49.27 41.49 50.36 L 46 56.9 L 42.45 56.08 L 40.5 58.79 L 37.74 51.71 L 35.9 59 L 33.85 56.89 Z" fill="#bac8d3" stroke="#23445d" stroke-miterlimit="10" pointer-events="all"/></g></g></g></g></g></svg>