<?xml version="1.0" encoding="UTF-8"?>
<!-- Do not edit this file with editors other than draw.io -->
<!DOCTYPE svg PUBLIC "-//W3C//DTD SVG 1.1//EN" "http://www.w3.org/Graphics/SVG/1.1/DTD/svg11.dtd">
<svg xmlns="http://www.w3.org/2000/svg" xmlns:xlink="http://www.w3.org/1999/xlink" version="1.1" width="42px" height="54px" viewBox="-0.5 -0.5 42 54" content="&lt;mxfile host=&quot;app.diagrams.net&quot; agent=&quot;Mozilla/5.0 (Windows NT 10.0; Win64; x64) AppleWebKit/537.36 (KHTML, like Gecko) Chrome/128.0.0.0 Safari/537.36 Edg/128.0.0.0&quot; version=&quot;24.7.16&quot;&gt;&#10;  &lt;diagram name=&quot;Page-1&quot; id=&quot;1sW2r1akbxhZGaDiX2mz&quot;&gt;&#10;    &lt;mxGraphModel dx=&quot;1426&quot; dy=&quot;791&quot; grid=&quot;1&quot; gridSize=&quot;10&quot; guides=&quot;1&quot; tooltips=&quot;1&quot; connect=&quot;1&quot; arrows=&quot;1&quot; fold=&quot;1&quot; page=&quot;1&quot; pageScale=&quot;1&quot; pageWidth=&quot;827&quot; pageHeight=&quot;1169&quot; math=&quot;0&quot; shadow=&quot;0&quot;&gt;&#10;      &lt;root&gt;&#10;        &lt;mxCell id=&quot;0&quot; /&gt;&#10;        &lt;mxCell id=&quot;1&quot; parent=&quot;0&quot; /&gt;&#10;        &lt;mxCell id=&quot;Zo_hKfJ1Sf6NGJSFo8-C-8&quot; value=&quot;&quot; style=&quot;sketch=0;pointerEvents=1;shadow=0;dashed=0;html=1;strokeColor=#23445d;fillColor=#bac8d3;labelPosition=center;verticalLabelPosition=bottom;verticalAlign=top;outlineConnect=0;align=center;shape=mxgraph.office.servers.reverse_proxy;&quot; vertex=&quot;1&quot; parent=&quot;1&quot;&gt;&#10;          &lt;mxGeometry x=&quot;510&quot; y=&quot;169&quot; width=&quot;41&quot; height=&quot;53&quot; as=&quot;geometry&quot; /&gt;&#10;        &lt;/mxCell&gt;&#10;      &lt;/root&gt;&#10;    &lt;/mxGraphModel&gt;&#10;  &lt;/diagram&gt;&#10;&lt;/mxfile&gt;&#10;"><defs/><g><g data-cell-id="0"><g data-cell-id="1"><g data-cell-id="Zo_hKfJ1Sf6NGJSFo8-C-8"><g><rect x="0" y="0" width="41" height="53" fill="none" stroke="none" pointer-events="all"/><path d="M 21.85 9.09 L 21.86 6.81 L 5.28 6.81 L 5.28 9.09 Z M 23.97 38.61 L 18.17 32.56 L 23.97 26.5 L 27.74 26.5 L 23.2 31.04 L 36.93 31.04 L 36.93 34.07 L 23.2 34.07 L 27.74 38.61 Z M 22.61 44.67 L 22.61 41.64 L 36.03 41.64 L 31.5 37.1 L 35.27 37.1 L 41 43.16 L 35.27 49.21 L 31.5 49.21 L 36.03 44.67 Z M 0 53 L 0 3 C 0 1.43 1.27 0 3.03 0 L 24.18 0 C 25.81 0 27.13 1.45 27.13 2.98 L 27.13 24.23 L 22.98 24.23 L 15.07 32.48 L 20.13 37.86 L 5.28 37.86 L 5.28 40.13 L 20.35 40.13 L 20.35 44.67 L 5.28 44.67 L 5.28 46.94 L 27.13 46.94 L 27.13 53 Z" fill="#bac8d3" stroke="#23445d" stroke-miterlimit="10" pointer-events="all"/></g></g></g></g></g></svg>