<?xml version="1.0" encoding="UTF-8"?>
<!-- Do not edit this file with editors other than draw.io -->
<!DOCTYPE svg PUBLIC "-//W3C//DTD SVG 1.1//EN" "http://www.w3.org/Graphics/SVG/1.1/DTD/svg11.dtd">
<svg xmlns="http://www.w3.org/2000/svg" xmlns:xlink="http://www.w3.org/1999/xlink" version="1.1" width="62px" height="22px" viewBox="-0.5 -0.5 62 22" content="&lt;mxfile host=&quot;app.diagrams.net&quot; agent=&quot;Mozilla/5.0 (Windows NT 10.0; Win64; x64) AppleWebKit/537.36 (KHTML, like Gecko) Chrome/128.0.0.0 Safari/537.36 Edg/128.0.0.0&quot; version=&quot;24.7.16&quot;&gt;&#10;  &lt;diagram name=&quot;Page-1&quot; id=&quot;1sW2r1akbxhZGaDiX2mz&quot;&gt;&#10;    &lt;mxGraphModel dx=&quot;1426&quot; dy=&quot;791&quot; grid=&quot;1&quot; gridSize=&quot;10&quot; guides=&quot;1&quot; tooltips=&quot;1&quot; connect=&quot;1&quot; arrows=&quot;1&quot; fold=&quot;1&quot; page=&quot;1&quot; pageScale=&quot;1&quot; pageWidth=&quot;827&quot; pageHeight=&quot;1169&quot; math=&quot;0&quot; shadow=&quot;0&quot;&gt;&#10;      &lt;root&gt;&#10;        &lt;mxCell id=&quot;0&quot; /&gt;&#10;        &lt;mxCell id=&quot;1&quot; parent=&quot;0&quot; /&gt;&#10;        &lt;mxCell id=&quot;Zo_hKfJ1Sf6NGJSFo8-C-9&quot; value=&quot;&quot; style=&quot;sketch=0;pointerEvents=1;shadow=0;dashed=0;html=1;strokeColor=#23445d;fillColor=#bac8d3;labelPosition=center;verticalLabelPosition=bottom;verticalAlign=top;outlineConnect=0;align=center;shape=mxgraph.office.concepts.link;&quot; vertex=&quot;1&quot; parent=&quot;1&quot;&gt;&#10;          &lt;mxGeometry x=&quot;620&quot; y=&quot;187&quot; width=&quot;61&quot; height=&quot;21&quot; as=&quot;geometry&quot; /&gt;&#10;        &lt;/mxCell&gt;&#10;      &lt;/root&gt;&#10;    &lt;/mxGraphModel&gt;&#10;  &lt;/diagram&gt;&#10;&lt;/mxfile&gt;&#10;"><defs/><g><g data-cell-id="0"><g data-cell-id="1"><g data-cell-id="Zo_hKfJ1Sf6NGJSFo8-C-9"><g><rect x="0" y="0" width="61" height="21" fill="none" stroke="none" pointer-events="all"/><path d="M 33.5 14.84 C 34.21 16.44 35.22 17.63 36.42 18.6 C 38.42 20.19 40.55 20.91 42.77 20.99 L 49.58 20.99 C 53.07 20.83 55.6 19.2 57.33 17.18 C 59.77 14.43 61 9.21 58.29 4.87 C 56.56 2.17 53.59 0.11 49.52 0 L 42.7 0 C 40.67 0 38.06 0.97 36.59 2.19 C 34.98 3.51 34.16 4.8 33.57 5.98 L 38.66 5.98 C 39.61 5.05 40.88 4.26 42.87 4.18 L 49.5 4.18 C 51.31 4.28 53.01 4.89 54.44 6.82 C 56.04 9.21 55.89 12.04 54.34 14.17 C 53.21 15.56 51.77 16.65 49.5 16.76 L 42.98 16.76 C 40.95 16.76 39.47 15.72 38.59 14.84 Z M 44.36 12.68 C 45.52 12.68 46.43 11.64 46.43 10.51 C 46.43 9.22 45.37 8.19 44.33 8.19 L 16.28 8.19 C 15.34 8.19 14.25 9.24 14.25 10.46 C 14.25 11.79 15.34 12.68 16.31 12.68 Z M 27.12 14.99 C 26.32 16.69 25.12 18.28 23.18 19.47 C 21.56 20.42 19.79 21 17.65 20.99 L 11.15 20.99 C 7.7 20.99 3.62 18.98 1.74 14.92 C 0.63 12.2 0 9.08 2.35 4.95 C 4.3 1.73 7.95 0 10.87 0 L 18.12 0 C 20.22 0.13 22.19 0.83 24.01 2.2 C 25.47 3.35 26.44 4.6 27.11 5.98 L 22.04 5.98 C 20.95 4.85 19.24 4.16 17.7 4.18 L 11.25 4.18 C 9.85 4.18 7.63 4.88 6.18 6.99 C 4.27 10.04 5.41 12.67 5.95 13.64 C 7.32 15.9 9.3 16.64 11.18 16.76 L 18.06 16.76 C 19.71 16.65 20.98 15.98 22.03 14.99 Z" fill="#bac8d3" stroke="#23445d" stroke-miterlimit="10" pointer-events="all"/></g></g></g></g></g></svg>