<?xml version="1.0" encoding="UTF-8"?>
<!-- Do not edit this file with editors other than draw.io -->
<!DOCTYPE svg PUBLIC "-//W3C//DTD SVG 1.1//EN" "http://www.w3.org/Graphics/SVG/1.1/DTD/svg11.dtd">
<svg xmlns="http://www.w3.org/2000/svg" version="1.1" width="53px" height="60px" viewBox="-0.5 -0.5 53 60" content="&lt;mxfile host=&quot;app.diagrams.net&quot; agent=&quot;Mozilla/5.0 (Windows NT 10.0; Win64; x64) AppleWebKit/537.36 (KHTML, like Gecko) Chrome/128.0.0.0 Safari/537.36 Edg/128.0.0.0&quot; version=&quot;24.7.16&quot;&gt;&#10;  &lt;diagram name=&quot;Page-1&quot; id=&quot;1sW2r1akbxhZGaDiX2mz&quot;&gt;&#10;    &lt;mxGraphModel dx=&quot;1426&quot; dy=&quot;791&quot; grid=&quot;1&quot; gridSize=&quot;10&quot; guides=&quot;1&quot; tooltips=&quot;1&quot; connect=&quot;1&quot; arrows=&quot;1&quot; fold=&quot;1&quot; page=&quot;1&quot; pageScale=&quot;1&quot; pageWidth=&quot;827&quot; pageHeight=&quot;1169&quot; math=&quot;0&quot; shadow=&quot;0&quot;&gt;&#10;      &lt;root&gt;&#10;        &lt;mxCell id=&quot;0&quot; /&gt;&#10;        &lt;mxCell id=&quot;1&quot; parent=&quot;0&quot; /&gt;&#10;        &lt;mxCell id=&quot;Zo_hKfJ1Sf6NGJSFo8-C-7&quot; value=&quot;&quot; style=&quot;sketch=0;pointerEvents=1;shadow=0;dashed=0;html=1;strokeColor=#23445d;fillColor=#bac8d3;labelPosition=center;verticalLabelPosition=bottom;verticalAlign=top;outlineConnect=0;align=center;shape=mxgraph.office.servers.exchange_hub_transport_server_role;&quot; vertex=&quot;1&quot; parent=&quot;1&quot;&gt;&#10;          &lt;mxGeometry x=&quot;440&quot; y=&quot;165.5&quot; width=&quot;52&quot; height=&quot;59&quot; as=&quot;geometry&quot; /&gt;&#10;        &lt;/mxCell&gt;&#10;      &lt;/root&gt;&#10;    &lt;/mxGraphModel&gt;&#10;  &lt;/diagram&gt;&#10;&lt;/mxfile&gt;&#10;">
  <defs>
    <filter id="smtpShadow" x="-10%" y="-10%" width="130%" height="130%">
      <feDropShadow dx="0" dy="1.5" stdDeviation="1.5" flood-color="#00000050"/>
    </filter>
  </defs>
  <g filter="url(#smtpShadow)">
    <!-- Server tower body — deep navy -->
    <path d="M 0 55.02 L 0 5.73 C 0 3.79 1.74 2.74 2.87 2.74 L 24.13 2.74
             C 25.91 2.74 27.13 4.25 27.13 5.61 L 27.13 34.11
             L 15.82 34.11 L 15.82 40.08 L 5.28 40.08 L 5.28 42.32 L 15.82 42.32
             L 15.82 46.8 L 5.28 46.8 L 5.28 49.04 L 15.82 49.04 L 15.82 55.02 Z"
          fill="#5d7fd8" stroke="#172a6b" stroke-width="0.6"/>
    <!-- LED bar -->
    <path d="M 21.86 11.7 L 21.86 9.46 L 5.28 9.46 L 5.28 11.7 Z" fill="#93c5fd" stroke="none">
      <animate attributeName="fill" values="#93c5fd;#34d399;#93c5fd"
               dur="3s" repeatCount="indefinite" calcMode="spline"
               keySplines="0.4 0 0.6 1;0.4 0 0.6 1"/>
    </path>
    <!-- Envelope outer frame — amber -->
    <path d="M 18.08 59.5 L 18.08 36.35 L 47.48 36.35 L 47.48 59.5 Z"
          fill="#f59e0b" stroke="#d97706" stroke-width="0.7"/>
    <!-- Envelope back area — cream -->
    <path d="M 19.58 58.01 L 45.97 58.01 L 45.97 37.84 L 19.58 37.84 Z"
          fill="#fef3c7" stroke="none"/>
    <!-- Envelope V-fold lines — static -->
    <line x1="18.08" y1="36.35" x2="32.78" y2="47" stroke="#d97706" stroke-width="0.9"/>
    <line x1="47.48" y1="36.35" x2="32.78" y2="47" stroke="#d97706" stroke-width="0.9"/>
    <!-- Text lines — fade in staggered -->
    <path d="M 24.12 49.79 L 24.12 48.3 L 35.41 48.3 L 35.41 49.79 Z" fill="#64748b" stroke="none">
      <animate attributeName="opacity" values="0;1;1;0" dur="4s" begin="1s"
               repeatCount="indefinite" keyTimes="0;0.3;0.8;1"/>
    </path>
    <path d="M 24.12 53.53 L 24.12 52.03 L 39.18 52.03 L 39.18 53.53 Z" fill="#64748b" stroke="none">
      <animate attributeName="opacity" values="0;1;1;0" dur="4s" begin="1.4s"
               repeatCount="indefinite" keyTimes="0;0.3;0.8;1"/>
    </path>
    <!-- Notification badge — static -->
    <path d="M 39.93 44.56 L 39.93 40.08 L 43.71 40.08 L 43.71 44.56 Z"
          fill="#ef4444" stroke="#b91c1c" stroke-width="0.5"/>
  </g>
</svg>
