<?xml version="1.0" encoding="UTF-8"?>
<!-- Do not edit this file with editors other than draw.io -->
<!DOCTYPE svg PUBLIC "-//W3C//DTD SVG 1.1//EN" "http://www.w3.org/Graphics/SVG/1.1/DTD/svg11.dtd">
<svg xmlns="http://www.w3.org/2000/svg" xmlns:xlink="http://www.w3.org/1999/xlink" version="1.1" width="53px" height="60px" viewBox="-0.5 -0.5 53 60" content="&lt;mxfile host=&quot;app.diagrams.net&quot; agent=&quot;Mozilla/5.0 (Windows NT 10.0; Win64; x64) AppleWebKit/537.36 (KHTML, like Gecko) Chrome/128.0.0.0 Safari/537.36 Edg/128.0.0.0&quot; version=&quot;24.7.16&quot;&gt;&#10;  &lt;diagram name=&quot;Page-1&quot; id=&quot;1sW2r1akbxhZGaDiX2mz&quot;&gt;&#10;    &lt;mxGraphModel dx=&quot;1426&quot; dy=&quot;791&quot; grid=&quot;1&quot; gridSize=&quot;10&quot; guides=&quot;1&quot; tooltips=&quot;1&quot; connect=&quot;1&quot; arrows=&quot;1&quot; fold=&quot;1&quot; page=&quot;1&quot; pageScale=&quot;1&quot; pageWidth=&quot;827&quot; pageHeight=&quot;1169&quot; math=&quot;0&quot; shadow=&quot;0&quot;&gt;&#10;      &lt;root&gt;&#10;        &lt;mxCell id=&quot;0&quot; /&gt;&#10;        &lt;mxCell id=&quot;1&quot; parent=&quot;0&quot; /&gt;&#10;        &lt;mxCell id=&quot;Zo_hKfJ1Sf6NGJSFo8-C-7&quot; value=&quot;&quot; style=&quot;sketch=0;pointerEvents=1;shadow=0;dashed=0;html=1;strokeColor=#23445d;fillColor=#bac8d3;labelPosition=center;verticalLabelPosition=bottom;verticalAlign=top;outlineConnect=0;align=center;shape=mxgraph.office.servers.exchange_hub_transport_server_role;&quot; vertex=&quot;1&quot; parent=&quot;1&quot;&gt;&#10;          &lt;mxGeometry x=&quot;440&quot; y=&quot;165.5&quot; width=&quot;52&quot; height=&quot;59&quot; as=&quot;geometry&quot; /&gt;&#10;        &lt;/mxCell&gt;&#10;      &lt;/root&gt;&#10;    &lt;/mxGraphModel&gt;&#10;  &lt;/diagram&gt;&#10;&lt;/mxfile&gt;&#10;"><defs/><g><g data-cell-id="0"><g data-cell-id="1"><g data-cell-id="Zo_hKfJ1Sf6NGJSFo8-C-7"><g><rect x="0" y="0.5" width="52" height="59" fill="none" stroke="none" pointer-events="all"/><path d="M 35.62 8.21 C 35.63 8.41 35.68 8.51 35.76 8.59 C 37.26 9.99 38.92 11.56 40.47 11.87 C 40.73 11.81 40.95 11.72 41.11 11.56 C 41.2 11.48 41.17 11.4 41.07 11.37 C 40.09 11.17 38.52 9.71 37.62 8.39 L 37.62 6.41 L 39.54 6.42 L 40.6 7.05 C 40.7 7.12 40.74 7.08 40.78 7.03 C 40.95 6.76 41.1 6.46 41.23 6.16 C 41.25 6.09 41.27 6.01 41.22 5.97 L 40 4.61 C 39.9 4.52 39.77 4.44 39.62 4.44 L 36.39 4.44 C 35.99 4.44 35.62 4.61 35.62 5.09 Z M 43.87 4.61 C 42.29 6.27 40.9 8.18 40.67 9.22 C 40.68 9.37 40.82 9.66 40.95 9.86 C 41.07 9.99 41.16 9.91 41.18 9.8 C 41.54 8.55 43.26 6.99 44.19 6.41 L 46.1 6.42 L 46.1 8.32 L 45.45 9.4 C 45.4 9.47 45.44 9.5 45.48 9.54 C 45.78 9.72 46.07 9.88 46.37 9.99 C 46.44 10.02 46.51 10.01 46.57 9.97 L 47.9 8.79 C 48 8.7 48.08 8.6 48.1 8.41 L 48.1 5.14 C 48.1 4.96 47.98 4.44 47.48 4.44 L 44.29 4.44 C 44.15 4.44 44 4.47 43.87 4.61 Z M 42.49 15.1 C 42.47 15.17 42.47 15.23 42.51 15.27 L 43.71 16.61 C 43.81 16.71 43.92 16.78 44.06 16.79 L 47.36 16.79 C 47.74 16.79 48.1 16.59 48.1 16.12 L 48.1 13 C 48.1 12.87 48.08 12.76 47.95 12.64 C 46.72 11.53 45.06 9.76 43.26 9.36 C 43.01 9.4 42.85 9.51 42.67 9.6 C 42.55 9.71 42.48 9.81 42.68 9.87 C 43.85 10.24 45.04 11.35 46.1 12.85 L 46.1 14.82 L 44.19 14.82 C 43.82 14.6 43.47 14.36 43.09 14.16 C 43.03 14.13 42.98 14.15 42.94 14.21 C 42.74 14.57 42.65 14.7 42.49 15.1 Z M 39.27 16.8 C 39.42 16.79 39.56 16.78 39.66 16.66 C 40.96 15.4 42.73 13.35 42.98 12 C 42.95 11.81 42.81 11.46 42.65 11.34 C 42.57 11.28 42.51 11.3 42.48 11.38 C 42.17 12.72 40.13 14.39 39.47 14.82 L 37.54 14.81 L 37.55 12.92 C 37.78 12.56 38.03 12.19 38.22 11.83 C 38.23 11.78 38.24 11.73 38.18 11.69 C 37.88 11.53 37.57 11.34 37.27 11.23 C 37.18 11.2 37.12 11.22 37.07 11.26 L 35.8 12.39 C 35.66 12.51 35.55 12.65 35.55 12.86 L 35.55 16.19 C 35.55 16.52 35.7 16.79 36.13 16.79 Z M 31.65 20.66 L 31.65 0.5 L 52 0.5 L 52 20.66 Z" fill="#f79421" stroke="none" pointer-events="all"/><rect x="0" y="0.5" width="0" height="0" fill="none" stroke="#23445d" pointer-events="all"/><path d="M 39.93 44.56 L 39.93 40.08 L 43.71 40.08 L 43.71 44.56 Z M 24.12 49.79 L 24.12 48.3 L 35.41 48.3 L 35.41 49.79 Z M 24.12 53.53 L 24.12 52.03 L 39.18 52.03 L 39.18 53.53 Z M 19.58 58.01 L 45.97 58.01 L 45.97 37.84 L 19.58 37.84 Z M 18.08 59.5 L 18.08 36.35 L 47.48 36.35 L 47.48 59.5 Z M 0 55.02 L 0 5.73 C 0 3.79 1.74 2.74 2.87 2.74 L 24.13 2.74 C 25.91 2.74 27.13 4.25 27.13 5.61 L 27.13 34.11 L 15.82 34.11 L 15.82 40.08 L 5.28 40.08 L 5.28 42.32 L 15.82 42.32 L 15.82 46.8 L 5.28 46.8 L 5.28 49.04 L 15.82 49.04 L 15.82 55.02 Z M 21.86 11.7 L 21.86 9.46 L 5.28 9.46 L 5.28 11.7 Z" fill="#bac8d3" stroke="#23445d" stroke-miterlimit="10" pointer-events="all"/></g></g></g></g></g></svg>