<?xml version="1.0" encoding="UTF-8"?>
<!-- Do not edit this file with editors other than draw.io -->
<!DOCTYPE svg PUBLIC "-//W3C//DTD SVG 1.1//EN" "http://www.w3.org/Graphics/SVG/1.1/DTD/svg11.dtd">
<svg xmlns="http://www.w3.org/2000/svg" xmlns:xlink="http://www.w3.org/1999/xlink" version="1.1" width="54px" height="57px" viewBox="-0.5 -0.5 54 57" content="&lt;mxfile host=&quot;app.diagrams.net&quot; agent=&quot;Mozilla/5.0 (Windows NT 10.0; Win64; x64) AppleWebKit/537.36 (KHTML, like Gecko) Chrome/128.0.0.0 Safari/537.36 Edg/128.0.0.0&quot; version=&quot;24.7.16&quot;&gt;&#10;  &lt;diagram name=&quot;Page-1&quot; id=&quot;1sW2r1akbxhZGaDiX2mz&quot;&gt;&#10;    &lt;mxGraphModel dx=&quot;1426&quot; dy=&quot;791&quot; grid=&quot;1&quot; gridSize=&quot;10&quot; guides=&quot;1&quot; tooltips=&quot;1&quot; connect=&quot;1&quot; arrows=&quot;1&quot; fold=&quot;1&quot; page=&quot;1&quot; pageScale=&quot;1&quot; pageWidth=&quot;827&quot; pageHeight=&quot;1169&quot; math=&quot;0&quot; shadow=&quot;0&quot;&gt;&#10;      &lt;root&gt;&#10;        &lt;mxCell id=&quot;0&quot; /&gt;&#10;        &lt;mxCell id=&quot;1&quot; parent=&quot;0&quot; /&gt;&#10;        &lt;mxCell id=&quot;Zo_hKfJ1Sf6NGJSFo8-C-2&quot; value=&quot;&quot; style=&quot;sketch=0;pointerEvents=1;shadow=0;dashed=0;html=1;strokeColor=#23445d;fillColor=#bac8d3;labelPosition=center;verticalLabelPosition=bottom;verticalAlign=top;outlineConnect=0;align=center;shape=mxgraph.office.devices.workstation;&quot; vertex=&quot;1&quot; parent=&quot;1&quot;&gt;&#10;          &lt;mxGeometry x=&quot;100&quot; y=&quot;165.5&quot; width=&quot;53&quot; height=&quot;56&quot; as=&quot;geometry&quot; /&gt;&#10;        &lt;/mxCell&gt;&#10;      &lt;/root&gt;&#10;    &lt;/mxGraphModel&gt;&#10;  &lt;/diagram&gt;&#10;&lt;/mxfile&gt;&#10;"><defs/><g><g data-cell-id="0"><g data-cell-id="1"><g data-cell-id="Zo_hKfJ1Sf6NGJSFo8-C-2"><g><rect x="0" y="0.5" width="53" height="56" fill="none" stroke="none" pointer-events="all"/><path d="M 15.68 45.3 L 50.01 45.3 L 50.01 25.14 L 15.68 25.14 Z M 14.85 48.29 C 13.8 48.29 12.69 47.41 12.69 46.09 L 12.69 24.3 C 12.69 23.24 13.58 22.15 14.88 22.15 L 50.81 22.15 C 52.12 22.15 53 23.27 53 24.29 L 53 46 C 53 47.32 52.06 48.29 50.7 48.29 L 37.62 48.29 C 37.36 49.2 37.1 50.17 37.06 50.99 C 36.95 52.69 38.02 53.17 39.93 53.44 C 41.22 53.6 42.35 53.63 43.56 53.66 C 44.3 53.66 45.01 54.2 45.01 55.08 C 45.01 55.92 44.4 56.5 43.57 56.5 L 22.16 56.5 C 21.4 56.5 20.75 55.88 20.75 55.08 C 20.75 54.36 21.32 53.66 22.16 53.66 C 23.57 53.61 25.01 53.61 26.5 53.32 C 27.92 53.05 28.79 52.52 28.63 50.9 C 28.58 50.17 28.33 49.2 28.07 48.29 Z M 5.23 9.46 L 21.65 9.46 L 21.65 7.22 L 5.23 7.22 Z M 0 52.77 L 0 3.43 C 0 1.74 1.52 0.5 2.86 0.5 L 23.98 0.5 C 25.45 0.5 26.87 1.82 26.87 3.43 L 26.87 19.91 L 14.77 19.91 C 12.5 19.91 10.45 22.02 10.45 24.25 L 10.45 37.83 L 5.23 37.83 L 5.23 40.07 L 10.45 40.07 L 10.45 44.55 L 5.23 44.55 L 5.23 46.79 L 10.51 46.79 C 10.94 49.15 13.02 50.53 14.76 50.53 L 26.28 50.53 C 26.28 50.71 26.36 50.9 26.35 51.04 C 25.59 51.29 23.89 51.42 22.44 51.42 C 21.81 51.39 21.26 51.47 20.7 51.7 C 20.15 51.92 19.68 52.28 19.27 52.77 Z" fill="#bac8d3" stroke="#23445d" stroke-miterlimit="10" pointer-events="all"/></g></g></g></g></g></svg>